<?xml version="1.0" standalone="no"?>
<!DOCTYPE svg PUBLIC "-//W3C//DTD SVG 20010904//EN"
 "http://www.w3.org/TR/2001/REC-SVG-20010904/DTD/svg10.dtd">
<svg version="1.0" xmlns="http://www.w3.org/2000/svg"
 width="512.000000pt" height="512.000000pt" viewBox="0 0 512.000000 512.000000"
 preserveAspectRatio="xMidYMid meet">
<metadata>
Created by potrace 1.11, written by Peter Selinger 2001-2013
</metadata>
<g transform="translate(0.000000,512.000000) scale(0.100000,-0.100000)"
fill="#000000" stroke="none">
<path d="M2541 4735 c-11 -20 -21 -40 -21 -46 0 -5 -3 -9 -7 -9 -5 0 -13 -10
-19 -23 -6 -12 -98 -170 -206 -352 -342 -579 -628 -1064 -628 -1068 0 -1 60
-3 134 -2 87 0 132 -4 128 -10 -3 -5 -72 -111 -153 -235 -82 -124 -218 -331
-303 -460 -85 -129 -159 -241 -166 -247 -13 -16 -35 -15 273 -15 136 -1 247
-3 247 -6 0 -7 -572 -929 -656 -1059 -43 -65 -48 -79 -32 -85 7 -2 271 -4 586
-3 567 0 572 0 573 -20 0 -11 1 -184 2 -385 l2 -365 270 0 270 0 2 355 c1 195
2 369 3 385 l0 30 575 0 c317 0 582 2 589 5 10 4 2 23 -29 70 -67 103 -657
1053 -662 1066 -3 8 63 11 247 10 139 -1 256 2 262 5 5 4 -65 120 -158 260
-92 140 -233 354 -314 476 -81 122 -142 224 -136 225 6 2 66 3 134 3 91 -1
121 2 118 11 -5 14 -356 609 -392 666 -13 21 -24 41 -24 44 0 4 -6 15 -14 23
-7 9 -25 36 -39 61 -13 25 -38 67 -53 93 -16 27 -37 63 -48 80 -10 18 -86 147
-168 287 -83 140 -154 259 -158 263 -4 5 -17 -8 -29 -28z"/>
<path d="M1124 4062 c-88 -141 -267 -427 -397 -635 -131 -208 -237 -382 -237
-386 0 -5 45 -8 100 -7 56 1 107 -1 116 -4 11 -4 -10 -41 -84 -145 -129 -184
-399 -569 -433 -620 l-27 -40 234 -5 234 -5 -181 -275 c-100 -151 -240 -364
-311 -472 -72 -108 -130 -200 -129 -205 0 -4 234 -8 518 -9 l518 0 3 -38 c3
-35 17 -15 251 361 136 219 277 445 314 503 l66 105 -265 5 -265 5 152 230
c83 127 203 309 267 405 63 96 136 207 163 247 27 39 49 73 49 75 0 2 -60 5
-132 5 -73 1 -134 2 -135 2 -1 1 32 58 74 129 41 70 97 164 123 209 l49 81
-206 329 c-113 180 -211 337 -217 348 -22 38 -41 65 -46 65 -3 0 -77 -116
-166 -258z"/>
<path d="M3670 4073 c-85 -137 -173 -278 -197 -315 -23 -36 -58 -92 -77 -123
l-34 -57 95 -161 c53 -89 105 -178 115 -197 11 -19 25 -41 30 -47 12 -15 12
-15 -154 -15 -60 0 -108 -2 -108 -4 0 -2 97 -151 217 -331 385 -583 408 -618
411 -625 2 -4 -116 -9 -261 -10 l-265 -3 139 -220 c76 -121 142 -226 146 -234
3 -8 82 -135 175 -284 149 -239 168 -266 168 -235 0 26 5 37 18 40 9 2 245 3
524 3 487 -1 506 -1 497 17 -5 10 -85 132 -176 271 -92 138 -229 347 -305 462
l-138 210 234 5 234 5 -28 40 c-15 22 -53 76 -83 120 -31 44 -144 206 -251
360 -107 153 -191 282 -187 285 5 3 57 5 115 4 58 0 106 2 106 6 0 4 -32 58
-71 121 -40 63 -77 123 -83 134 -11 18 -50 80 -111 175 -12 19 -98 157 -190
305 -93 149 -183 293 -200 320 -18 28 -56 89 -86 137 -30 48 -56 88 -59 88 -3
0 -75 -111 -160 -247z"/>
<path d="M1049 925 c-1 -143 -1 -168 0 -252 l1 -68 233 1 c128 0 237 3 243 6
5 4 9 93 8 215 l-1 208 -241 3 -242 2 -1 -115z"/>
<path d="M3588 1033 c-10 -21 -1 -415 9 -421 20 -12 464 -7 471 5 4 6 6 104 4
217 l-3 206 -239 0 c-131 0 -240 -3 -242 -7z"/>
</g>
</svg>
